<svg xmlns="http://www.w3.org/2000/svg" version="1.1" xmlns:xlink="http://www.w3.org/1999/xlink" xmlns:svgjs="http://svgjs.dev/svgjs" width="1500" height="1582" viewBox="0 0 1500 1582"><g transform="matrix(1,0,0,1,-2.83001274435685,-2.5504349384998477)"><svg viewBox="0 0 235 248" data-background-color="#ffffff" preserveAspectRatio="xMidYMid meet" height="1582" width="1500" xmlns="http://www.w3.org/2000/svg" xmlns:xlink="http://www.w3.org/1999/xlink"><g id="tight-bounds" transform="matrix(1,0,0,1,0.44336866328256974,0.40002634420793015)"><svg viewBox="0 0 234.11326267343486 247.2" height="247.2" width="234.11326267343486"><g><svg viewBox="0 0 234.11326267343486 247.2" height="247.2" width="234.11326267343486"><g><svg viewBox="0 0 234.11326267343486 247.2" height="247.2" width="234.11326267343486"><g id="textblocktransform"><svg viewBox="0 0 234.11326267343486 247.2" height="247.2" width="234.11326267343486" id="textblock"><g><svg viewBox="0 0 234.11326267343486 247.2" height="247.2" width="234.11326267343486"><path d="M233.565 53.02C232.465 27.36 229.328 20.227 229.328 20.227 219.697-6.202 207.679-0.506 196.882 3.292 177.819 3.446 158.833 9.091 139.815 12.119 99.895 12.581 59.635 4.986 19.913 23.717 16.182 29.464-3.871 24.846 0.664 56.304 1.852 69.39 6.189 83.913 6.057 95.922 6.651 98.026 7.476 93.202 7.829 96.23 9.061 104.39 11.075 100.541 12.726 105.365 10.426 118.246 12.077 128.971 13.651 140.21 10.877 143.135 7.322 141.749 5.727 151.449 5.561 158.479 4.67 157.145 3.69 156.837 2.975 156.632 1.533 157.402 1.775 159.608 2.601 167.152-0.943 171.514 1.28 178.904-0.25 186.91 2.337 193.838 1.984 202.511 1.94 204.255 2.183 205.744 2.568 206.154 4.274 208.361 1.786 212.672 2.05 217.342 19.55 249.262 38.536 227.195 56.465 241.872 61.121 231.608 57.621 245.516 59.481 243.36 60.933 240.846 61.99 251.263 63.63 245.362 63.883 243.668 63.498 239.665 64.4 240.435 64.874 240.846 65.292 240.743 65.358 238.382 65.457 234.841 64.587 237.048 64.356 235.201 66.855 225.861 66.238 248.081 68.583 247.158 68.473 244.438 67.79 240.538 69.188 241.051 70.575 237.151 70.619 233.918 71.852 242.693 71.896 244.592 72.116 245.926 72.468 246.85 76.32 237.305 80.15 250.237 84.189 245.926 86.666 241.205 89.043 248.492 91.553 246.696 92.433 245.259 93.325 242.693 94.172 247.004 104.551 247.928 115.612 244.079 125.452 247.158 151.745 241.41 179.844 249.518 207.569 241.923 214.106 238.998 220.897 234.841 227.27 231.506 227.27 231.506 232.432 222.371 232.432 181.316S233.532 145.393 233.697 112.703C233.862 80.013 234.633 78.679 233.532 53.02Z" opacity="1" fill="#ef5b2a" data-fill-palette-color="tertiary"></path><g transform="matrix(1,0,0,1,55.76832,26.230666666666668)"><svg width="122.57662267343485" viewBox="1.25 -29.55 18.6 29.55" height="194.73866666666666" data-palette-color="#ffffff"><path d="M12.4 0L1.25 0 1.25-29.55 12.85-29.55Q16.15-29.55 17.63-28.15 19.1-26.75 19.1-24.5L19.1-24.5 19.1-21.3Q19.1-19.2 18.07-17.68 17.05-16.15 14.7-15.9L14.7-15.9 14.7-15.8Q16.85-15.8 18.35-14.43 19.85-13.05 19.85-10.1L19.85-10.1 19.85-6.25Q19.85-2.7 17.88-1.35 15.9 0 12.4 0L12.4 0ZM9.55-2.3L11.75-2.25Q13.35-2.25 14.5-3.85 15.65-5.45 15.65-8.9L15.65-8.9 15.65-10.2Q15.65-12.1 14.85-13.65 14.05-15.2 12.05-15.2L12.05-15.2Q13.1-15.2 14.1-16.8L14.1-16.8Q15.05-18.35 15.05-21.9L15.05-21.9Q15.05-24.2 14.78-25.38 14.5-26.55 13.65-27 12.8-27.45 11.05-27.45L11.05-27.45 9.45-27.4 9.45-27.3 11.05-27.25Q12.7-27.25 13.48-26.83 14.25-26.4 14.45-25.25 14.65-24.1 14.65-21.9L14.65-21.9Q14.65-19.05 13.98-17.13 13.3-15.2 11.55-15.2L11.55-15.2 9.55-15.2 9.55-15.1 11.55-15.1Q13.85-15.1 14.53-13.75 15.2-12.4 15.2-10.2L15.2-10.2 15.2-8.9Q15.2-5.55 14.25-4 13.3-2.45 11.75-2.45L11.75-2.45 9.55-2.4 9.55-2.3ZM5.15-15.25L5.4-2.25 5.55-2.25 5.65-15.25 5.6-27.35 5.4-27.35 5.15-15.25ZM9.55-25.35L9.55-17.4 10.15-17.4Q10.7-17.4 10.95-18.55L10.95-18.55Q11.05-19.1 11.13-19.83 11.2-20.55 11.2-21.35L11.2-21.35Q11.2-22.2 11.18-22.93 11.15-23.65 11.1-24.2L11.1-24.2Q11-25.35 10.3-25.35L10.3-25.35 9.55-25.35ZM9.55-12.45L9.55-4.05 10.3-4.05Q10.85-4.05 11.05-5.3L11.05-5.3Q11.2-6.5 11.2-8.25L11.2-8.25Q11.2-9.1 11.18-9.85 11.15-10.6 11.1-11.25L11.1-11.25Q11.05-12.45 10.3-12.45L10.3-12.45 9.55-12.45Z" opacity="1" transform="matrix(1,0,0,1,0,0)" fill="#ffffff" class="wordmark-text-0" data-fill-palette-color="quaternary" id="text-0"></path></svg></g></svg></g></svg></g></svg></g><g></g></svg></g><defs></defs></svg><rect width="234.11326267343486" height="247.2" fill="none" stroke="none" visibility="hidden"></rect></g></svg></g></svg>